solid Phone holder 4.0
facet normal -1.0 0.0 8.326672684688677e-17
  outer loop
    vertex 79.99999999999997 40.0 79.99999999999997
    vertex 80.00000000000004 20.0 2.9999999999999636
    vertex 80.00000000000004 17.0 2.9999999999999636
  endloop
endfacet
facet normal -1.0 0.0 8.326672684688677e-17
  outer loop
    vertex 80.00000000000004 20.0 2.9999999999999636
    vertex 79.99999999999997 40.0 79.99999999999997
    vertex 80.00000000000003 41.275 74.225
  endloop
endfacet
facet normal -1.0 0.0 8.326672684688677e-17
  outer loop
    vertex 80.00000000000003 41.275 74.225
    vertex 79.99999999999997 40.0 79.99999999999997
    vertex 79.99999999999997 43.0 79.99999999999997
  endloop
endfacet
facet normal -1.0 0.0 8.326672684688677e-17
  outer loop
    vertex 80.00000000000003 41.275 74.225
    vertex 79.99999999999997 43.0 79.99999999999997
    vertex 80.00000000000004 57.00000000000001 2.999999999999978
  endloop
endfacet
facet normal -1.0 0.0 8.326672684688677e-17
  outer loop
    vertex 80.00000000000004 57.00000000000001 2.999999999999978
    vertex 79.99999999999997 43.0 79.99999999999997
    vertex 80.00000000000004 60.0 2.999999999999978
  endloop
endfacet
facet normal -1.0 0.0 8.326672684688677e-17
  outer loop
    vertex 79.99999999999997 5.0 7.999999999999994
    vertex 80.0 1.9999999999999998 0.0
    vertex 79.99999999999997 1.9999999999999998 7.999999999999994
  endloop
endfacet
facet normal -1.0 0.0 8.326672684688677e-17
  outer loop
    vertex 80.0 1.9999999999999998 0.0
    vertex 79.99999999999997 5.0 7.999999999999994
    vertex 80.00000000000004 5.0 2.9999999999999636
  endloop
endfacet
facet normal -1.0 0.0 8.326672684688677e-17
  outer loop
    vertex 80.0 1.9999999999999998 0.0
    vertex 80.00000000000004 5.0 2.9999999999999636
    vertex 80.0 60.0 0.0
  endloop
endfacet
facet normal -1.0 0.0 8.326672684688677e-17
  outer loop
    vertex 80.0 60.0 0.0
    vertex 80.00000000000004 5.0 2.9999999999999636
    vertex 80.00000000000004 17.0 2.9999999999999636
  endloop
endfacet
facet normal -1.0 0.0 8.326672684688677e-17
  outer loop
    vertex 80.0 60.0 0.0
    vertex 80.00000000000004 17.0 2.9999999999999636
    vertex 80.00000000000004 20.0 2.9999999999999636
  endloop
endfacet
facet normal -1.0 0.0 8.326672684688677e-17
  outer loop
    vertex 80.0 60.0 0.0
    vertex 80.00000000000004 20.0 2.9999999999999636
    vertex 80.00000000000004 57.00000000000001 2.999999999999978
  endloop
endfacet
facet normal -1.0 0.0 8.326672684688677e-17
  outer loop
    vertex 80.0 60.0 0.0
    vertex 80.00000000000004 57.00000000000001 2.999999999999978
    vertex 80.00000000000004 60.0 2.999999999999978
  endloop
endfacet
facet normal 1.0 0.0 -8.326672684688677e-17
  outer loop
    vertex 179.99999999999986 1.9999999999999998 2.8199664825478976e-14
    vertex 180.0 5.0 3.000000000000003
    vertex 179.9999999999999 1.9999999999999998 7.99999999999998
  endloop
endfacet
facet normal 1.0 0.0 -8.326672684688677e-17
  outer loop
    vertex 180.0 5.0 3.000000000000003
    vertex 179.99999999999986 1.9999999999999998 2.8199664825478976e-14
    vertex 179.99999999999986 60.0 2.8199664825478976e-14
  endloop
endfacet
facet normal 1.0 0.0 -8.326672684688677e-17
  outer loop
    vertex 180.0 5.0 3.000000000000003
    vertex 179.99999999999986 60.0 2.8199664825478976e-14
    vertex 180.0 17.0 3.000000000000003
  endloop
endfacet
facet normal 1.0 0.0 -8.326672684688677e-17
  outer loop
    vertex 180.0 17.0 3.000000000000003
    vertex 179.99999999999986 60.0 2.8199664825478976e-14
    vertex 180.0 20.0 3.000000000000003
  endloop
endfacet
facet normal 1.0 0.0 -8.326672684688677e-17
  outer loop
    vertex 180.0 20.0 3.000000000000003
    vertex 179.99999999999986 60.0 2.8199664825478976e-14
    vertex 180.0 57.00000000000001 3.000000000000003
  endloop
endfacet
facet normal 1.0 0.0 -8.326672684688677e-17
  outer loop
    vertex 180.0 20.0 3.000000000000003
    vertex 180.00000000000009 40.0 80.00000000000001
    vertex 180.0 17.0 3.000000000000003
  endloop
endfacet
facet normal 1.0 0.0 -8.326672684688677e-17
  outer loop
    vertex 180.00000000000009 40.0 80.00000000000001
    vertex 180.0 20.0 3.000000000000003
    vertex 179.9999999999999 41.275 74.22500000000008
  endloop
endfacet
facet normal 1.0 0.0 -8.326672684688677e-17
  outer loop
    vertex 180.00000000000009 40.0 80.00000000000001
    vertex 179.9999999999999 41.275 74.22500000000008
    vertex 180.00000000000009 43.0 80.00000000000001
  endloop
endfacet
facet normal 1.0 0.0 -8.326672684688677e-17
  outer loop
    vertex 180.00000000000009 43.0 80.00000000000001
    vertex 179.9999999999999 41.275 74.22500000000008
    vertex 180.0 57.00000000000001 3.000000000000003
  endloop
endfacet
facet normal 1.0 0.0 -8.326672684688677e-17
  outer loop
    vertex 180.00000000000009 43.0 80.00000000000001
    vertex 180.0 57.00000000000001 3.000000000000003
    vertex 180.0 60.0 3.000000000000003
  endloop
endfacet
facet normal 1.0 0.0 -8.326672684688677e-17
  outer loop
    vertex 180.0 60.0 3.000000000000003
    vertex 180.0 57.00000000000001 3.000000000000003
    vertex 179.99999999999986 60.0 2.8199664825478976e-14
  endloop
endfacet
facet normal 1.0 0.0 -8.326672684688677e-17
  outer loop
    vertex 179.9999999999999 5.0 7.99999999999998
    vertex 179.9999999999999 1.9999999999999998 7.99999999999998
    vertex 180.0 5.0 3.000000000000003
  endloop
endfacet
facet normal 8.326672684688677e-17 0.0 1.0
  outer loop
    vertex 180.00000000000009 40.0 80.00000000000001
    vertex 79.99999999999997 43.0 79.99999999999997
    vertex 79.99999999999997 40.0 79.99999999999997
  endloop
endfacet
facet normal 8.326672684688677e-17 0.0 1.0
  outer loop
    vertex 79.99999999999997 43.0 79.99999999999997
    vertex 180.00000000000009 40.0 80.00000000000001
    vertex 180.00000000000009 43.0 80.00000000000001
  endloop
endfacet
facet normal -8.326672684688677e-17 0.0 -1.0
  outer loop
    vertex 179.99999999999986 60.0 2.8199664825478976e-14
    vertex 80.0 1.9999999999999998 0.0
    vertex 80.0 60.0 0.0
  endloop
endfacet
facet normal -8.326672684688677e-17 0.0 -1.0
  outer loop
    vertex 80.0 1.9999999999999998 0.0
    vertex 179.99999999999986 60.0 2.8199664825478976e-14
    vertex 179.99999999999986 1.9999999999999998 2.8199664825478976e-14
  endloop
endfacet
facet normal 0.0 -1.0 0.0
  outer loop
    vertex 179.99999999999986 1.9999999999999998 2.8199664825478976e-14
    vertex 79.99999999999997 1.9999999999999998 7.999999999999994
    vertex 80.0 1.9999999999999998 0.0
  endloop
endfacet
facet normal 0.0 -1.0 0.0
  outer loop
    vertex 79.99999999999997 1.9999999999999998 7.999999999999994
    vertex 179.99999999999986 1.9999999999999998 2.8199664825478976e-14
    vertex 179.9999999999999 1.9999999999999998 7.99999999999998
  endloop
endfacet
facet normal 0.0 1.0 0.0
  outer loop
    vertex 80.00000000000004 60.0 2.999999999999978
    vertex 179.99999999999986 60.0 2.8199664825478976e-14
    vertex 80.0 60.0 0.0
  endloop
endfacet
facet normal 0.0 1.0 0.0
  outer loop
    vertex 179.99999999999986 60.0 2.8199664825478976e-14
    vertex 80.00000000000004 60.0 2.999999999999978
    vertex 180.0 60.0 3.000000000000003
  endloop
endfacet
facet normal 8.326672684688677e-17 -3.0486124135652946e-16 1.0
  outer loop
    vertex 180.0 20.0 3.000000000000003
    vertex 80.00000000000004 57.00000000000001 2.999999999999978
    vertex 80.00000000000004 20.0 2.9999999999999636
  endloop
endfacet
facet normal 8.326672684688677e-17 -3.0486124135652946e-16 1.0
  outer loop
    vertex 80.00000000000004 57.00000000000001 2.999999999999978
    vertex 180.0 20.0 3.000000000000003
    vertex 180.0 57.00000000000001 3.000000000000003
  endloop
endfacet
facet normal 2.775557561562892e-17 -0.9764845276848871 -0.21558749312523495
  outer loop
    vertex 180.0 57.00000000000001 3.000000000000003
    vertex 80.00000000000003 41.275 74.225
    vertex 80.00000000000004 57.00000000000001 2.999999999999978
  endloop
endfacet
facet normal 2.775557561562892e-17 -0.9764845276848871 -0.21558749312523495
  outer loop
    vertex 80.00000000000003 41.275 74.225
    vertex 180.0 57.00000000000001 3.000000000000003
    vertex 179.9999999999999 41.275 74.22500000000008
  endloop
endfacet
facet normal 1.5265566588595902e-16 0.9581680931685116 -0.2862060538035813
  outer loop
    vertex 80.00000000000003 41.275 74.225
    vertex 180.0 20.0 3.000000000000003
    vertex 80.00000000000004 20.0 2.9999999999999636
  endloop
endfacet
facet normal 1.5265566588595902e-16 0.9581680931685116 -0.2862060538035813
  outer loop
    vertex 180.0 20.0 3.000000000000003
    vertex 80.00000000000003 41.275 74.225
    vertex 179.9999999999999 41.275 74.22500000000008
  endloop
endfacet
facet normal 8.326672684688677e-17 0.0 1.0
  outer loop
    vertex 179.9999999999999 1.9999999999999998 7.99999999999998
    vertex 79.99999999999997 5.0 7.999999999999994
    vertex 79.99999999999997 1.9999999999999998 7.999999999999994
  endloop
endfacet
facet normal 8.326672684688677e-17 0.0 1.0
  outer loop
    vertex 79.99999999999997 5.0 7.999999999999994
    vertex 179.9999999999999 1.9999999999999998 7.99999999999998
    vertex 179.9999999999999 5.0 7.99999999999998
  endloop
endfacet
facet normal 0.0 1.0 0.0
  outer loop
    vertex 79.99999999999997 5.0 7.999999999999994
    vertex 180.0 5.0 3.000000000000003
    vertex 80.00000000000004 5.0 2.9999999999999636
  endloop
endfacet
facet normal 0.0 1.0 0.0
  outer loop
    vertex 180.0 5.0 3.000000000000003
    vertex 79.99999999999997 5.0 7.999999999999994
    vertex 179.9999999999999 5.0 7.99999999999998
  endloop
endfacet
facet normal 8.326672684688677e-17 0.0 1.0
  outer loop
    vertex 180.0 5.0 3.000000000000003
    vertex 80.00000000000004 17.0 2.9999999999999636
    vertex 80.00000000000004 5.0 2.9999999999999636
  endloop
endfacet
facet normal 8.326672684688677e-17 0.0 1.0
  outer loop
    vertex 80.00000000000004 17.0 2.9999999999999636
    vertex 180.0 5.0 3.000000000000003
    vertex 180.0 17.0 3.000000000000003
  endloop
endfacet
facet normal -1.5265566588595902e-16 -0.9581680931685117 0.2862060538035814
  outer loop
    vertex 180.0 17.0 3.000000000000003
    vertex 79.99999999999997 40.0 79.99999999999997
    vertex 80.00000000000004 17.0 2.9999999999999636
  endloop
endfacet
facet normal -1.5265566588595902e-16 -0.9581680931685117 0.2862060538035814
  outer loop
    vertex 79.99999999999997 40.0 79.99999999999997
    vertex 180.0 17.0 3.000000000000003
    vertex 180.00000000000009 40.0 80.00000000000001
  endloop
endfacet
facet normal -1.0408340855860843e-17 0.9764845276848871 0.21558749312523487
  outer loop
    vertex 79.99999999999997 43.0 79.99999999999997
    vertex 180.0 60.0 3.000000000000003
    vertex 80.00000000000004 60.0 2.999999999999978
  endloop
endfacet
facet normal -1.0408340855860843e-17 0.9764845276848871 0.21558749312523487
  outer loop
    vertex 180.0 60.0 3.000000000000003
    vertex 79.99999999999997 43.0 79.99999999999997
    vertex 180.00000000000009 43.0 80.00000000000001
  endloop
endfacet
endsolid Phone holder 4.0
